<svg xmlns="http://www.w3.org/2000/svg" height="24px" viewBox="0 0 24 24" width="24px" fill="#000000">
    <g id="grid">
        <path d="M0 0h24v24H0V0z" fill="none"/>
        <path d="M4 8h4V4H4v4zm6 12h4v-4h-4v4zm-6 0h4v-4H4v4zm0-6h4v-4H4v4zm6 0h4v-4h-4v4zm6-10v4h4V4h-4zm-6 4h4V4h-4v4zm6 6h4v-4h-4v4zm0 6h4v-4h-4v4z"/>
    </g>
    <g id="list">
        <path d="M0 0h24v24H0V0z" fill="none"/>
        <path d="M4 15h16v-2H4v2zm0 4h16v-2H4v2zm0-8h16V9H4v2zm0-6v2h16V5H4z"/>
    </g>
    <g id="close">
        <path d="M0 0h24v24H0V0z" fill="none"/>
        <path d="M19 6.41L17.59 5 12 10.59 6.41 5 5 6.41 10.59 12 5 17.59 6.41 19 12 13.41 17.59 19 19 17.59 13.41 12 19 6.41z"/>
    </g>
</svg>